<?xml version="1.0" encoding="UTF-8" standalone="no"?>
<svg
   id="hojas_eco"
   version="1.1"
   viewBox="0 0 1076.4 492.6"
   sodipodi:docname="logo CM_robocity2030.svg"
   inkscape:version="1.4 (86a8ad7, 2024-10-11)"
   inkscape:export-filename="logo CM_robocity2030.jpg"
   inkscape:export-xdpi="300"
   inkscape:export-ydpi="300"
   xmlns:inkscape="http://www.inkscape.org/namespaces/inkscape"
   xmlns:sodipodi="http://sodipodi.sourceforge.net/DTD/sodipodi-0.dtd"
   xmlns="http://www.w3.org/2000/svg"
   xmlns:svg="http://www.w3.org/2000/svg">
  <sodipodi:namedview
     id="namedview36"
     pagecolor="#ffffff"
     bordercolor="#000000"
     borderopacity="0.25"
     inkscape:showpageshadow="2"
     inkscape:pageopacity="0.0"
     inkscape:pagecheckerboard="0"
     inkscape:deskcolor="#d1d1d1"
     showgrid="false"
     inkscape:zoom="1.3071349"
     inkscape:cx="538.20001"
     inkscape:cy="245.95779"
     inkscape:window-width="1920"
     inkscape:window-height="1017"
     inkscape:window-x="-8"
     inkscape:window-y="-8"
     inkscape:window-maximized="1"
     inkscape:current-layer="hojas_eco"
     inkscape:export-bgcolor="#ffffff00" />
  <!-- Generator: Adobe Illustrator 29.1.0, SVG Export Plug-In . SVG Version: 2.1.0 Build 142)  -->
  <defs
     id="defs1">
    <style
       id="style1">
      .st0 {
        fill: #46a80e;
      }

      .st1 {
        fill-rule: evenodd;
      }

      .st1, .st2 {
        fill: #4d4d4d;
      }

      .st3 {
        fill: #093974;
      }

      .st4 {
        fill: #fff;
      }

      .st5 {
        fill: #fc9904;
      }

      .st6 {
        fill: #fc0204;
      }
    </style>
  </defs>
  <g
     id="g37"
     transform="matrix(1.0589416,0,0,1.0589416,-60.986922,-23.010819)">
    <g
       id="g36"
       transform="translate(136)">
      <path
         class="st1"
         d="m 715.6,230.6 c -9,-1 -18.1,-1.4 -27,-3.2 -24.6,-5 -35.6,-22.6 -29.5,-47.1 5.7,-22.7 20.3,-38.9 39.4,-51.3 14.4,-9.4 30.4,-15.1 47.6,-16.3 5.5,-0.4 11.5,0.7 16.8,2.6 6.2,2.2 8,9.8 4.1,15.2 -5.4,7.6 -14,10.2 -22.3,13.2 -0.6,0.2 -1.7,-0.7 -2.6,-1.1 0.5,-1.1 0.8,-2.5 1.6,-3.2 2.6,-2 5.6,-3.6 8.2,-5.6 4.7,-3.6 4.4,-7.9 -1.4,-9.4 -5.6,-1.5 -11.7,-2.2 -17.5,-1.7 -12.3,1 -22.8,7.2 -32.3,14.6 -15.5,12 -25,27.8 -28.3,47.1 -2.8,16.8 7,30.2 23.8,32.4 17.8,2.3 35.6,2.3 53.4,-1.2 4.3,-0.9 8.7,-1.4 13,-1.8 1.2,-0.1 2.5,0.9 3.8,1.4 -0.8,1.1 -1.3,2.6 -2.4,3.3 -17.3,9.8 -23.6,11.2 -48.7,12.2 h 0.3 z"
         id="path1" />
      <path
         class="st3"
         d="m 282.4,288.6 37.9,37.9 4.2,-4.2 -34.2,-34.2 c -2.7,0.3 -5.3,0.5 -7.9,0.6 z"
         id="path2" />
      <path
         class="st3"
         d="m 216.7,214.4 107.6,-107.6 -4,-4 -111.9,111.9 15.9,15.9 c 0.8,-2 1.6,-3.9 2.6,-5.9 l -10.3,-10.3 z"
         id="path3" />
      <path
         class="st6"
         d="m 423.4,226.1 c -4.8,4.4 -10.1,8.6 -15.6,12.8 l -83.3,83.3 3.9,3.9 143.7,-142.8 c 0,0 -1.1,0.7 -2.8,1.7 -6.1,5.7 -13,11.4 -20.3,17.1 -7.4,8.2 -16,16.3 -25.6,23.9 z"
         id="path4" />
      <path
         class="st6"
         d="m 347.5,120.3 c -11.4,-10.6 -19.1,-17.7 -19.1,-17.7 l -4.2,4.2 17,17 c 2.1,-1.2 4.1,-2.3 6.3,-3.4 z"
         id="path5" />
      <path
         class="st6"
         d="m 226.9,224.7 c 8.9,-18.3 26.2,-37.6 48.7,-54.7 15.7,-15.4 35.6,-29.9 57.8,-41.6 2.6,-1.6 5.2,-3.1 7.8,-4.6 l -17,-17 -107.6,107.6 z"
         id="path6" />
      <path
         class="st6"
         d="m 349.6,272.1 c -21.2,8.8 -41.4,14 -59.3,15.9 l 34.2,34.2 83.3,-83.3 c -16.9,12.7 -36.8,24.3 -58.3,33.2 z"
         id="path7" />
      <path
         class="st6"
         d="m 238.5,244.7 -14.1,-14.1 c -3.3,8.4 -4.7,16.6 -3.9,24.1 2.6,23.9 27.1,35.8 62,33.9 l -13,-13 c -17.2,-4.7 -28.6,-15.1 -30.9,-30.9 z"
         id="path8" />
      <path
         class="st6"
         d="m 279.9,277.6 c -3.7,-0.5 -7.2,-1.1 -10.5,-2 l 13,13 c 2.6,-0.1 5.2,-0.3 7.9,-0.6 z"
         id="path9" />
      <path
         class="st6"
         d="m 238.3,243 c -0.2,-2.3 -0.3,-4.7 -0.2,-7.2 l -11.2,-11.2 c -1,2 -1.8,3.9 -2.6,5.9 l 14.1,14.1 c 0,-0.6 -0.2,-1.1 -0.2,-1.7 z"
         id="path10" />
      <path
         class="st6"
         d="m 407.8,238.9 c 5.5,-4.1 10.7,-8.4 15.6,-12.8 -3.6,2.9 -7.3,5.7 -11.2,8.4 z"
         id="path11" />
      <path
         class="st6"
         d="m 365.5,261 c -32.5,14.2 -62.7,19.5 -85.6,16.6 l 10.4,10.4 c 17.9,-1.9 38.1,-7.1 59.3,-15.9 21.5,-8.9 41.3,-20.4 58.3,-33.2 l 4.4,-4.4 c -14.1,10 -29.9,19.1 -46.8,26.5 z"
         id="path12" />
      <path
         class="st6"
         d="m 275.7,170 c -22.5,17.1 -39.8,36.4 -48.7,54.7 l 11.2,11.2 c 1.1,-20.3 15.3,-44 37.6,-65.9 z"
         id="path13" />
      <path
         class="st5"
         d="m 423.4,226.1 c 9.6,-7.6 18.2,-15.7 25.6,-23.9 -2.7,2.1 -5.5,4.2 -8.3,6.3 -5.1,6 -10.8,11.9 -17.2,17.6 z"
         id="path14" />
      <path
         class="st5"
         d="m 333.4,128.3 c -22.2,11.7 -42,26.2 -57.8,41.6 6.6,-5 13.7,-9.9 21.1,-14.4 10.6,-9.6 23,-18.9 36.6,-27.2 z"
         id="path15" />
      <path
         class="st5"
         d="m 269.4,275.6 -30.9,-30.9 c 2.3,15.8 13.7,26.2 30.9,30.9 z"
         id="path16" />
      <path
         class="st5"
         d="m 238.3,243 c 0,0.6 0.1,1.1 0.2,1.7 l 30.9,30.9 c 3.3,0.9 6.8,1.6 10.5,2 l -41.8,-41.8 c -0.1,2.4 0,4.8 0.2,7.2 z"
         id="path17" />
      <path
         class="st5"
         d="m 440.6,208.5 c -2.8,2 -5.6,4.1 -8.5,6.1 v 0 c 0,0 -19.9,19.9 -19.9,19.9 3.9,-2.7 7.6,-5.5 11.2,-8.4 6.4,-5.8 12.2,-11.7 17.2,-17.6 z"
         id="path18" />
      <path
         class="st5"
         d="m 365.5,261 c 16.8,-7.4 32.6,-16.4 46.8,-26.5 l 19.9,-19.9 v 0 c -13.8,9.7 -29,19.3 -44.8,28.7 -62.6,37.4 -125.5,20 -129.6,-17.2 -2.3,-21 13.1,-47 39,-70.5 -7.4,4.6 -14.5,9.4 -21.1,14.4 -22.3,21.8 -36.4,45.5 -37.6,65.9 l 41.8,41.8 c 22.9,2.9 53.1,-2.4 85.6,-16.6 z"
         id="path19" />
      <g
         id="Forma_4_copia_21">
        <path
           class="st2"
           d="m 370.1,225.7 c -35.2,-13.7 -84.2,-4.6 -84.2,-4.6 45.5,5.3 53.5,5.6 69.3,15.9 22.4,14.6 29.2,72.7 29.2,72.7 0,0 36.1,1.3 35.2,-1.3 -6.2,-20 -23.9,-72.6 -49.6,-82.6 v 0 z"
           id="path20" />
      </g>
      <g
         id="robocity2030_copia_31">
        <path
           class="st1"
           d="m 503.7,219.4 c 5.5,-6.4 8.3,-14.8 8.3,-24.9 v -2.1 c 0,-10.1 -2.8,-18.4 -8.3,-24.9 -5.5,-6.5 -12.9,-9.7 -22.1,-9.7 -9.2,0 -16.5,3.2 -22,9.7 -5.5,6.5 -8.3,14.8 -8.3,24.9 v 2.1 c 0,10.2 2.8,18.5 8.3,24.9 5.5,6.5 12.9,9.7 22.1,9.7 9.2,0 16.5,-3.2 22,-9.7 z m -38.8,-4.9 c -4,-5.4 -6,-12.1 -6,-20 v -2.1 c 0,-7.8 2,-14.5 6,-19.9 4,-5.5 9.6,-8.2 16.7,-8.2 7.1,0 12.7,2.7 16.7,8.2 4.1,5.5 6.1,12.1 6.1,19.9 v 2.1 c 0,8 -2,14.6 -6.1,20 -4,5.4 -9.6,8.1 -16.7,8.1 -7.1,0 -12.8,-2.7 -16.8,-8.1 v 0 z m 63.8,2.9 c 2.3,3.7 5.3,6.6 8.9,8.6 3.7,2 8,3 13,3 8.2,0 14.6,-3.1 19.2,-9.2 4.7,-6.1 7,-14.3 7,-24.6 v -1.3 c 0,-11 -2.3,-19.7 -7,-26.3 -4.7,-6.6 -11.1,-9.9 -19.4,-9.9 -8.3,0 -9.1,1 -12.6,3.1 -3.6,2.1 -6.5,5 -8.8,8.7 v -40.9 h -7.6 v 99 h 6 l 1.3,-10.3 v 0 z m 0.4,-39.2 c 1.6,-4.1 4,-7.4 7.2,-9.9 3.2,-2.6 7.4,-3.8 12.7,-3.8 5.3,0 11.7,2.7 15,8.2 3.4,5.5 5.1,12.6 5.1,21.3 v 1.3 c 0,8.3 -1.7,14.9 -5,19.8 -3.3,4.9 -8.3,7.4 -15,7.4 -6.7,0 -9.2,-1.2 -12.5,-3.5 -3.3,-2.3 -5.8,-5.4 -7.5,-9.4 z m 86.3,50.8 c 9.1,0 16.5,-3.2 22,-9.7 5.5,-6.4 8.3,-14.8 8.3,-24.9 v -2.1 c 0,-10.1 -2.8,-18.4 -8.3,-24.9 -5.5,-6.5 -12.9,-9.7 -22.1,-9.7 -9.2,0 -16.5,3.2 -22,9.7 -5.5,6.5 -8.3,14.8 -8.3,24.9 v 2.1 c 0,10.2 2.8,18.5 8.3,24.9 5.5,6.5 12.9,9.7 22.1,9.7 z m -22.8,-36.6 c 0,-7.8 2,-14.5 6,-19.9 4,-5.5 9.6,-8.2 16.7,-8.2 7.1,0 12.7,2.7 16.7,8.2 4.1,5.5 6.1,12.1 6.1,19.9 v 2.1 c 0,8 -2,14.6 -6.1,20 -4,5.4 -9.6,8.1 -16.7,8.1 -7.1,0 -12.8,-2.7 -16.8,-8.1 -4,-5.4 -6,-12.1 -6,-20 v -2.1 0 z m 184.1,35.3 h 7.5 v -68.6 h -7.5 z m 52,-5.5 c -0.9,0.1 -1.8,0.2 -2.7,0.2 -2.7,0 -4.9,-0.9 -6.5,-2.8 -1.6,-1.9 -2.4,-5.1 -2.4,-9.5 v -44.7 h 15.1 v -6.2 h -15.1 v -17.6 h -7.7 v 17.6 h -11.9 v 6.2 h 11.9 v 44.7 c 0,6.6 1.3,11.4 4,14.5 2.7,3 6.4,4.6 11.3,4.6 4.9,0 3,-0.2 4.5,-0.5 1.5,-0.3 2.8,-0.7 3.8,-1.2 l -1.1,-5.6 c -1.2,0.3 -2.2,0.4 -3.1,0.5 v -0.2 z m 61.4,-63.1 -20.7,58.2 H 869 l -2.4,-8.2 -18.8,-50.1 h -8.4 l 26.5,67.8 -3.6,9.3 c -1.4,3.7 -3.1,6.7 -5.1,9 -2,2.3 -4.6,3.5 -7.9,3.5 -3.3,0 -1.3,0 -2.4,-0.2 -1.1,-0.1 -1.9,-0.2 -2.4,-0.3 l -0.9,6.3 c 0.6,0.2 1.5,0.4 2.8,0.6 1.3,0.2 2.3,0.3 3.2,0.3 5.5,0 9.6,-1.6 12.4,-4.9 2.8,-3.3 5.1,-7.2 6.9,-11.9 l 29.8,-79.6 h -8.5 v 0.2 z m -404.7,210.4 31.4,-36.6 c 7.2,-8.4 12.7,-15.7 16.7,-22 3.9,-6.3 5.9,-12.5 5.9,-18.6 0,-9.4 -2.6,-16.6 -7.9,-21.7 -5.3,-5.1 -12.4,-7.7 -21.4,-7.7 -9,0 -17.6,3.1 -23.4,9.3 -5.8,6.2 -8.6,13.8 -8.4,22.6 l 0.2,0.5 h 3.5 c 0,-8.4 2.5,-15.2 7.4,-20.5 4.9,-5.3 11.9,-7.9 20.8,-7.9 8.9,0 14.9,2.2 19,6.6 4.1,4.4 6.2,10.6 6.2,18.8 0,8.2 -1.4,10 -4.1,15.2 -2.7,5.2 -7.4,11.6 -14.1,19.4 l -37.4,43 v 4.1 h 65.5 v -4.1 h -59.6 l -0.2,-0.4 z m 97.4,-106.6 c -10.5,0 -18.7,3.6 -24.6,10.7 -5.8,7.1 -8.8,17 -8.8,29.5 v 32.2 c 0,12.5 3,22.4 8.9,29.5 5.9,7.1 14.1,10.7 24.6,10.7 10.5,0 18.7,-3.6 24.5,-10.7 5.8,-7.1 8.7,-17 8.7,-29.6 V 303 c 0,-12.5 -2.9,-22.4 -8.8,-29.5 -5.9,-7.1 -14.1,-10.7 -24.6,-10.7 v 0 z m 29.3,72.3 c 0,10.9 -2.5,19.7 -7.6,26.4 -5,6.6 -12.2,10 -21.6,10 -9.4,0 -16.7,-3.3 -21.8,-10 -5.1,-6.7 -7.6,-15.4 -7.6,-26.3 v -32 c 0,-11 2.5,-19.8 7.5,-26.4 5,-6.5 12.3,-9.8 21.7,-9.8 9.4,0 16.7,3.3 21.7,9.8 5.1,6.5 7.6,15.3 7.6,26.4 v 32 0 z M 666.6,318 c 6.2,-2 11.1,-5.3 14.7,-9.9 3.6,-4.6 5.5,-9.7 5.5,-15.5 0,-9.1 -2.8,-16.4 -8.4,-21.7 -5.6,-5.3 -13.1,-8 -22.5,-8 -9.4,0 -16.8,2.7 -23,8.2 -6.2,5.5 -9.2,12.7 -8.9,21.5 l 0.2,0.5 h 3.5 c 0,-7.9 2.7,-14.3 8,-19 5.4,-4.8 12.1,-7.1 20.2,-7.1 8.1,0 15.5,2.4 20,7.1 4.5,4.8 6.8,10.8 6.8,18.2 0,7.4 -2.6,12.3 -7.9,16.8 -5.3,4.6 -12.5,6.8 -21.7,6.8 h -8.3 v 4.2 h 8.3 c 9.8,0 17.6,2 23.4,6.1 5.7,4.1 8.6,10.4 8.6,18.9 0,8.5 -2.5,14.7 -7.5,19.3 -5,4.6 -12,7 -21.1,7 -9.1,0 -16.4,-2.6 -22.4,-7.9 -5.9,-5.3 -8.9,-12 -8.9,-20.1 h -3.5 l -0.2,0.5 c -0.3,10.1 3.2,17.9 10.3,23.4 7.1,5.5 15.3,8.2 24.6,8.2 9.3,0 17.5,-2.7 23.5,-8.2 6.1,-5.4 9.1,-12.9 9.1,-22.4 0,-9.5 -2,-12.8 -5.9,-17.4 -4,-4.6 -9.5,-7.8 -16.6,-9.6 h 0.1 z m 61.7,-55.1 c -10.5,0 -18.7,3.6 -24.6,10.7 -5.8,7.1 -8.8,17 -8.8,29.5 v 32.2 c 0,12.5 3,22.4 8.9,29.5 5.9,7.1 14.1,10.7 24.6,10.7 10.5,0 18.7,-3.6 24.5,-10.7 5.8,-7.1 8.7,-17 8.7,-29.6 V 303 c 0,-12.5 -2.9,-22.4 -8.8,-29.5 -5.9,-7.1 -14.1,-10.7 -24.6,-10.7 v 0 z m 29.3,72.3 c 0,10.9 -2.5,19.7 -7.6,26.4 -5,6.6 -12.2,10 -21.6,10 -9.4,0 -16.7,-3.3 -21.8,-10 -5.1,-6.7 -7.6,-15.4 -7.6,-26.3 v -32 c 0,-11 2.5,-19.8 7.5,-26.4 5,-6.5 12.3,-9.8 21.7,-9.8 9.4,0 16.7,3.3 21.7,9.8 5.1,6.5 7.6,15.3 7.6,26.4 v 32 0 z"
           id="path21" />
      </g>
      <g
         id="g25">
        <path
           class="st2"
           d="m 766.9,374.1 h -3.2 v -4.8 h 3.2 z"
           id="path22" />
        <path
           class="st2"
           d="m 775,353.2 c 0,-5.9 1.6,-10.7 4.9,-14.5 3.3,-3.7 7.5,-5.6 12.7,-5.6 5.2,0 9.5,1.9 12.7,5.6 3.3,3.7 4.9,8.6 4.9,14.5 v 1.6 c 0,5.9 -1.6,10.8 -4.9,14.5 -3.3,3.7 -7.5,5.6 -12.7,5.6 -5.2,0 -9.5,-1.9 -12.8,-5.6 -3.3,-3.7 -4.9,-8.6 -4.9,-14.5 v -1.6 0 z m 2,1.6 c 0,5.1 1.4,9.3 4.2,12.9 2.8,3.5 6.6,5.3 11.4,5.3 4.8,0 8.5,-1.8 11.3,-5.3 2.8,-3.5 4.2,-7.8 4.2,-12.8 v -1.6 c 0,-4.9 -1.4,-9.2 -4.3,-12.7 -2.9,-3.6 -6.6,-5.3 -11.4,-5.3 -4.8,0 -8.5,1.8 -11.4,5.3 -2.8,3.6 -4.2,7.8 -4.2,12.7 v 1.6 h 0.2 z"
           id="path23" />
        <path
           class="st2"
           d="m 835.7,335.3 -2.6,-0.2 c -3.6,0 -6.5,1.2 -8.8,3.5 -2.2,2.3 -3.7,5.4 -4.4,9.2 v 26.4 h -2 v -40.3 h 1.6 l 0.4,7 v 1.4 c 1.1,-2.9 2.8,-5.1 5,-6.7 2.2,-1.6 4.9,-2.4 8.2,-2.4 3.3,0 1.1,0 1.6,0.1 0.5,0 0.9,0.2 1.2,0.3 l -0.2,1.8 v 0 z"
           id="path24" />
        <path
           class="st2"
           d="m 839,354 c 0,-6.4 1.3,-11.4 4,-15.2 2.7,-3.8 6.4,-5.6 11.2,-5.6 4.8,0 5.8,0.7 8.1,2.1 2.3,1.4 4.1,3.4 5.5,5.8 l 0.3,-7.2 h 1.7 v 12.4 0 16.5 0 11.5 c 0,5.1 -1.3,9.1 -4,11.9 -2.7,2.8 -6.4,4.2 -11.2,4.2 -4.8,0 -4,-0.2 -6.1,-0.6 -2.1,-0.4 -4,-1 -5.6,-1.7 l 0.6,-2 c 1.8,0.8 3.6,1.4 5.2,1.8 1.7,0.4 3.6,0.6 5.8,0.6 4.3,0 7.6,-1.2 9.9,-3.6 2.2,-2.4 3.4,-5.9 3.4,-10.4 v -6.4 c -1.4,2.1 -3.2,3.8 -5.5,5.1 -2.3,1.2 -5,1.9 -8.1,1.9 -4.7,0 -8.4,-1.8 -11.1,-5.4 -2.7,-3.6 -4,-8.5 -4,-14.7 v -1 z m 2,0.7 c 0,5.6 1.1,10 3.3,13.3 2.2,3.3 5.4,4.9 9.7,4.9 4.3,0 6.3,-0.8 8.6,-2.3 2.3,-1.6 4,-3.6 5.1,-6.2 v -19.3 c -1,-2.8 -2.6,-5.2 -4.7,-7.1 -2.1,-1.9 -5.1,-2.9 -8.9,-2.9 -3.8,0 -7.5,1.7 -9.8,5.2 -2.2,3.5 -3.3,8 -3.3,13.6 z"
           id="path25" />
      </g>
      <g
         id="Forma_3_copia_31">
        <path
           class="st2"
           d="m 454.7,121.3 c -24.9,-46.8 -143.9,7.3 -143.9,7.3 90.2,-21.9 103.8,-8.9 104.9,8.7 1.7,26.8 -130.8,84.9 -130.8,84.9 0,0 194.6,-54.1 169.7,-100.8 v 0 z"
           id="path26" />
      </g>
      <polyline
         class="st4"
         points="350.4 273.1 353.2 271 353.1 274.5 356 276.6 352.7 277.6 351.6 281 349.6 278.1 346 278.2 348.2 275.3 347 272 350.4 273.1"
         id="polyline26" />
      <polyline
         class="st4"
         points="340.8 282.7 343.6 280.6 343.5 284.1 346.4 286.2 343.1 287.2 342 290.6 340 287.7 336.4 287.8 338.6 284.9 337.4 281.6 340.8 282.7"
         id="polyline27" />
      <polyline
         class="st4"
         points="331.2 292.3 334 290.2 333.9 293.7 336.8 295.8 333.5 296.8 332.4 300.2 330.4 297.3 326.8 297.4 329 294.5 327.8 291.2 331.2 292.3"
         id="polyline28" />
      <polyline
         class="st4"
         points="321.6 301.9 324.4 299.8 324.3 303.3 327.2 305.4 323.9 306.4 322.8 309.8 320.8 306.9 317.3 307 319.4 304.1 318.2 300.8 321.6 301.9"
         id="polyline29" />
      <polyline
         class="st4"
         points="353.2 286.8 356.1 284.7 356 288.2 358.9 290.2 355.5 291.3 354.5 294.6 352.4 291.8 348.9 291.8 351 289 349.9 285.6 353.2 286.8"
         id="polyline30" />
      <polyline
         class="st4"
         points="343.6 296.4 346.5 294.3 346.4 297.8 349.3 299.8 345.9 300.9 344.9 304.2 342.8 301.4 339.3 301.4 341.4 298.6 340.3 295.2 343.6 296.4"
         id="polyline31" />
      <polyline
         class="st4"
         points="334 306 336.9 303.9 336.8 307.4 339.7 309.4 336.3 310.5 335.3 313.8 333.2 311 329.7 311 331.8 308.2 330.7 304.8 334 306"
         id="polyline32" />
      <path
         class="st2"
         d="m 203.6,168.4 c 0,0.8 -0.8,2.9 -2.4,6.2 -0.8,1.6 -1.5,3 -1.9,4 -0.5,1.1 -0.7,1.8 -0.8,2.3 -0.8,3.9 -1.6,8 -2.4,12.5 -0.8,4.5 -1.5,9.3 -2.2,14.5 -0.2,1.4 -0.5,2.6 -0.6,3.6 -0.2,1 -0.3,1.9 -0.4,2.5 0,0.7 -0.2,1.4 -0.3,2.1 -0.1,0.8 -0.2,1.6 -0.3,2.5 0,0.9 -0.1,1.7 -0.2,2.5 v 2.1 c 0,0.4 0.3,1 0.8,1.8 0.5,0.7 0.8,1.3 0.8,1.9 0,1.2 -0.9,2.3 -3,3.4 -1,0.6 -2,1 -2.9,1.2 -0.9,0.3 -1.7,0.4 -2.5,0.5 -1.2,0 -2.2,-0.2 -2.9,-0.7 -0.8,-0.7 -1.4,-1.5 -2,-2.4 -0.5,-1 -0.8,-1.8 -0.9,-2.5 -0.1,-2.1 -0.2,-4.1 0,-6.2 0,-2.1 0.3,-4.1 0.6,-6.2 0.3,-2.1 0.7,-4.4 1.2,-7.1 0.5,-2.6 1.1,-5.6 1.8,-8.8 0.5,-2.2 1,-4.3 1.5,-6.3 0.5,-2 0.9,-3.8 1.4,-5.6 0.5,-1.8 1,-3.8 1.6,-6 0.6,-2.2 1.2,-4.7 1.9,-7.5 0.2,-1 0.4,-1.8 0.6,-2.5 0.2,-0.7 0.3,-1.2 0.4,-1.6 0,-0.5 0.2,-1.1 0.4,-1.8 0.2,-0.7 0.4,-1.7 0.7,-2.8 0,-0.4 0.2,-0.8 0.5,-1.3 0.3,-0.5 0.6,-1 1,-1.4 0.4,-0.5 0.8,-0.9 1.3,-1.2 0.5,-0.3 0.9,-0.5 1.4,-0.5 0.8,0 1.7,0.1 2.8,0.5 1,0.3 1.8,0.8 2.5,1.3 0.8,0.7 1.4,1.3 1.9,2.1 0.4,0.7 0.7,1.5 0.7,2.3 v 2.7 h -0.1 z"
         id="path32" />
      <path
         class="st0"
         d="m 204.9,153.3 c -7.8,0.8 -19.5,-0.6 -22.8,-11.7 -3.4,-11.1 3.5,-19.1 -4.3,-28.5 0,0 29.5,-6 26.2,34.7 -0.1,1.3 1.3,4.8 3.5,4.8 -0.4,0.4 -2.6,0.8 -2.6,0.8 v 0 z"
         id="path33" />
      <path
         class="st0"
         d="m 205.8,139.4 c -1.6,-3.7 -2.8,-9.7 2.2,-13.1 4.9,-3.4 10.1,-1.3 13.4,-6.6 3.6,18.9 -13.6,16.5 -14.7,20.8 -0.2,-0.1 -0.8,-1.1 -0.8,-1.1 v 0 z"
         id="path34" />
      <path
         class="st4"
         d="m 206.6,140.6 c -2.1,-4.6 1.2,-7 5.2,-8.4 0.5,-0.2 1,-0.4 1.1,-1 0,0.6 -0.5,1 -0.9,1.3 -3.6,2.1 -6.3,3.2 -5.4,8 v 0 z"
         id="path35" />
      <path
         class="st4"
         d="m 207.5,152.5 c -4.8,-0.3 -9.5,-3.2 -11.3,-7.8 -2.1,-4.2 -1.3,-9.4 -4.8,-12.8 1.1,0.5 1.9,1.4 2.6,2.4 1.8,3 2.2,6.7 3.6,9.8 1.7,4.3 5.6,6.9 9.9,8.5 v 0 z"
         id="path36" />
    </g>
    <g
       id="g24"
       transform="matrix(0.43531244,0,0,0.43531244,66.999375,95.12467)">
	<g
   id="g8">
		<rect
   x="49"
   y="49.099998"
   class="st0"
   width="422.89999"
   height="422.89999"
   id="rect1"
   style="fill:#de0029" />

		<g
   id="g7">
			<polygon
   class="st1"
   points="120,218.2 92,218.5 114.7,234.7 106.5,260.8 128.5,244.8 150.9,260.5 142.3,234.4 164.7,217.8 137.2,218.2 128.5,191.5 "
   id="polygon1"
   style="fill:#ffffff" />

			<polygon
   class="st1"
   points="208.1,218.2 180.1,218.5 202.8,234.7 194.6,260.8 216.6,244.8 238.9,260.5 230.4,234.4 252.8,217.8 225.2,218.2 216.6,191.5 "
   id="polygon2"
   style="fill:#ffffff" />

			<polygon
   class="st1"
   points="296.5,218.2 268.5,218.5 291.2,234.7 283,260.8 305,244.8 327.4,260.5 318.8,234.4 341.2,217.8 313.8,218.2 305,191.5 "
   id="polygon3"
   style="fill:#ffffff" />

			<polygon
   class="st1"
   points="252,279 224,279.3 246.7,295.5 238.5,321.6 260.5,305.6 282.9,321.3 274.4,295.2 296.7,278.7 269.2,279 260.5,252.3 "
   id="polygon4"
   style="fill:#ffffff" />

			<polygon
   class="st1"
   points="163.8,279 135.8,279.3 158.5,295.5 150.3,321.6 172.3,305.6 194.6,321.3 186.1,295.2 208.4,278.7 181,279 172.3,252.3 "
   id="polygon5"
   style="fill:#ffffff" />

			<polygon
   class="st1"
   points="340.6,279 312.6,279.3 335.3,295.5 327.1,321.6 349.1,305.6 371.5,321.3 362.9,295.2 385.3,278.7 357.9,279 349.1,252.3 "
   id="polygon6"
   style="fill:#ffffff" />

			<polygon
   class="st1"
   points="384.8,218.2 356.9,218.5 379.6,234.7 371.4,260.8 393.4,244.8 415.7,260.5 407.2,234.4 429.5,217.8 402.1,218.2 393.4,191.5 "
   id="polygon7"
   style="fill:#ffffff" />

		</g>

	</g>

	<g
   id="g23">
		<path
   class="st2"
   d="m 81.4,519 c -0.3,-1.9 -1.8,-7.8 -8.5,-7.8 -7.6,0 -10.1,7.4 -10.1,14.5 0,7.1 2.4,14.5 10.1,14.5 5.5,0 7.6,-3.8 8.6,-8.8 h 16 c 0,10.6 -8.6,22 -24.1,22 -17.1,0 -26.8,-12 -26.8,-27.6 0,-16.6 10.5,-27.6 26.8,-27.6 14.5,0.1 22.5,7.7 23.9,20.9 H 81.4 Z"
   id="path8-9"
   style="fill:#1d1d1b" />

		<path
   class="st2"
   d="m 123.3,553.1 c -14.4,0 -20.9,-9.5 -20.9,-20.2 0,-10.7 6.5,-20.1 20.9,-20.1 14.4,0 20.9,9.5 20.9,20.1 0,10.6 -6.5,20.2 -20.9,20.2 m 0,-29.7 c -5.5,0 -6.3,5.4 -6.3,9.5 0,4.1 0.7,9.5 6.3,9.5 5.5,0 6.3,-5.5 6.3,-9.5 0,-4.1 -0.8,-9.5 -6.3,-9.5"
   id="path9-4"
   style="fill:#1d1d1b" />

		<path
   class="st2"
   d="m 150.5,513.7 h 14.1 v 5.1 h 0.1 c 3,-4.4 7.2,-6.1 12.6,-6.1 4.1,0 8.6,2.1 10.3,6 0.6,-0.4 3.5,-6 13.1,-6 9.8,0 13.2,6.8 13.2,13 V 552 h -14.6 v -20.8 c 0,-3.6 -0.4,-6.9 -4.8,-6.9 -3.7,0 -5,2.9 -5,6.9 V 552 h -14.6 v -20.8 c 0,-3.6 -0.4,-6.9 -4.8,-6.9 -3.7,0 -5,2.9 -5,6.9 V 552 h -14.6 z"
   id="path10-8"
   style="fill:#1d1d1b" />

		<path
   class="st2"
   d="m 261.6,552.1 h -14.1 v -4.9 h -0.1 c -2.7,3.8 -6.6,5.8 -12.5,5.8 -6.9,0 -13.2,-4.2 -13.2,-13 v -26.3 h 14.6 v 20.1 c 0,4.4 0.5,7.5 4.8,7.5 2.5,0 5.8,-1.3 5.8,-7.4 v -20.2 h 14.6 v 38.4 z"
   id="path11-8"
   style="fill:#1d1d1b" />

		<path
   class="st2"
   d="m 269.6,513.7 h 14.1 v 4.9 h 0.1 c 2.7,-3.8 6.7,-5.8 12.5,-5.8 6.9,0 13.2,4.2 13.2,13 v 26.3 H 294.9 V 532 c 0,-4.4 -0.5,-7.5 -4.8,-7.5 -2.5,0 -5.8,1.3 -5.8,7.4 v 20.2 h -14.6 v -38.4 z"
   id="path12-2"
   style="fill:#1d1d1b" />

		<path
   class="st2"
   d="m 332.4,509.6 h -14.6 v -10.3 h 14.6 z m -14.6,4.2 h 14.6 v 38.4 h -14.6 z"
   id="path13-4"
   style="fill:#1d1d1b" />

		<path
   class="st2"
   d="m 380.7,552.1 h -14.1 v -4.2 h -0.1 c -1.9,2.4 -4.1,5.2 -11.2,5.2 -10.9,0 -16.1,-10.7 -16.1,-20.3 0,-9 3.5,-20 16.3,-20 4.4,0 8.3,1.9 10.5,5.2 h 0.1 v -18.6 h 14.6 z m -20.6,-28.7 c -5.2,0 -6.4,4.9 -6.4,9.5 0,4.6 1.2,9.5 6.4,9.5 5.2,0 6.4,-5 6.4,-9.5 0.1,-4.5 -1.1,-9.5 -6.4,-9.5"
   id="path14-5"
   style="fill:#1d1d1b" />

		<path
   class="st2"
   d="m 426.1,543.5 c 0,2.9 0.1,6.1 1.8,8.6 H 413 c -0.4,-1 -0.6,-2.6 -0.5,-3.6 h -0.1 c -3.1,3.5 -7.6,4.6 -12.3,4.6 -7.4,0 -13.5,-3.5 -13.5,-11.6 0,-12.1 14.2,-11.7 21.7,-13.1 2,-0.4 4,-1 4,-3.4 0,-2.6 -2.4,-3.6 -4.8,-3.6 -4.5,0 -5.4,2.3 -5.5,3.9 h -13.6 c 0.4,-10.8 10.6,-12.6 19.7,-12.6 18.3,0 18.2,7.6 18.2,15 v 15.8 z M 412,534.9 c -1.8,0.9 -3.8,1.4 -5.8,1.9 -3.3,0.7 -5,1.6 -5,4.1 0,1.8 1.9,3.5 4.6,3.5 3.3,0 5.9,-2 6.1,-6 v -3.5 z"
   id="path15-5"
   style="fill:#1d1d1b" />

		<path
   class="st2"
   d="m 473.8,552.1 h -14.1 v -4.2 h -0.1 c -1.9,2.4 -4.1,5.2 -11.2,5.2 -10.9,0 -16.1,-10.7 -16.1,-20.3 0,-9 3.5,-20 16.3,-20 4.4,0 8.3,1.9 10.5,5.2 h 0.1 v -18.6 h 14.6 z m -20.6,-28.7 c -5.2,0 -6.4,4.9 -6.4,9.5 0,4.6 1.2,9.5 6.4,9.5 5.2,0 6.4,-5 6.4,-9.5 0,-4.5 -1.2,-9.5 -6.4,-9.5"
   id="path16-1"
   style="fill:#1d1d1b" />

		<path
   class="st2"
   d="M 93,625.6 H 77.2 v -4.7 H 77 c -2.1,2.7 -4.5,5.8 -12.6,5.8 -12.2,0 -18,-12 -18,-22.7 0,-10.1 3.9,-22.3 18.3,-22.3 4.9,0 9.3,2.2 11.7,5.8 h 0.2 V 566.7 H 93 Z M 70,593.5 c -5.9,0 -7.2,5.5 -7.2,10.6 0,5.1 1.3,10.7 7.2,10.7 5.9,0 7.2,-5.5 7.2,-10.7 0,-5 -1.3,-10.6 -7.2,-10.6"
   id="path17-7"
   style="fill:#1d1d1b" />

		<path
   class="st2"
   d="m 115.8,607.8 c 0.4,4.9 3.2,8.4 8.3,8.4 2.7,0 5.5,-1 6.9,-3.1 h 15.3 c -3.3,9.3 -12.3,13.6 -22.1,13.6 -13.7,0 -24.1,-8.1 -24.1,-22.4 0,-12.5 9.1,-22.7 22.7,-22.7 17,0 24.4,9.5 24.4,26.2 z m 15.7,-8.5 c 0,-4 -3,-7.2 -7.2,-7.2 -4.9,0 -7.7,2.6 -8.4,7.2 z"
   id="path18-1"
   style="fill:#1d1d1b" />

		<polygon
   class="st2"
   points="209.4,625.6 199.2,587.7 199,587.7 199,625.6 181.8,625.6 181.8,566.6 207.7,566.6 216.1,601.3 216.3,601.3 224.7,566.6 250.6,566.6 250.6,625.6 233.4,625.6 233.4,587.7 233.3,587.7 223,625.6 "
   id="polygon18"
   style="fill:#1d1d1b" />

		<path
   class="st2"
   d="m 301.6,616 c 0,3.2 0.2,6.9 2,9.6 h -16.7 c -0.4,-1.2 -0.7,-2.9 -0.6,-4 h -0.2 c -3.5,4 -8.5,5.1 -13.8,5.1 -8.3,0 -15.1,-4 -15.1,-13 0,-13.6 15.9,-13.1 24.2,-14.6 2.2,-0.4 4.5,-1.1 4.5,-3.8 0,-2.9 -2.7,-4 -5.4,-4 -5,0 -6,2.6 -6.1,4.4 h -15.2 c 0.5,-12.1 11.9,-14.1 22.1,-14.1 20.5,0 20.3,8.5 20.3,16.8 z m -15.7,-9.6 c -2,1 -4.2,1.6 -6.5,2.1 -3.6,0.8 -5.5,1.7 -5.5,4.6 0,2 2.1,4 5.1,4 3.7,0 6.6,-2.2 6.9,-6.7 z"
   id="path19-1"
   style="fill:#1d1d1b" />

		<path
   class="st2"
   d="m 354.9,625.6 h -15.8 v -4.7 h -0.2 c -2.1,2.7 -4.5,5.8 -12.6,5.8 -12.2,0 -18,-12 -18,-22.7 0,-10.1 3.9,-22.3 18.3,-22.3 4.9,0 9.3,2.2 11.7,5.8 h 0.2 v -20.8 h 16.4 z m -23,-32.1 c -5.9,0 -7.2,5.5 -7.2,10.6 0,5.1 1.3,10.7 7.2,10.7 5.9,0 7.2,-5.5 7.2,-10.7 0,-5 -1.3,-10.6 -7.2,-10.6"
   id="path20-5"
   style="fill:#1d1d1b" />

		<path
   class="st2"
   d="m 363.8,582.7 h 15.7 v 6.9 h 0.2 c 2.6,-5.1 6.1,-7.9 12.1,-7.9 1.7,0 3.2,0.2 4.8,0.7 v 14.5 c -1.7,-0.6 -3.1,-1.1 -6.5,-1.1 -6.4,0 -9.9,3.8 -9.9,13 v 17 h -16.4 z"
   id="path21-2"
   style="fill:#1d1d1b" />

		<path
   class="st2"
   d="m 417.3,578.1 h -16.4 v -11.5 h 16.4 z m -16.4,4.6 h 16.4 v 42.9 h -16.4 z"
   id="path22-7"
   style="fill:#1d1d1b" />

		<path
   class="st2"
   d="m 471.3,625.6 h -15.8 v -4.7 h -0.2 c -2.1,2.7 -4.5,5.8 -12.6,5.8 -12.2,0 -18,-12 -18,-22.7 0,-10.1 3.9,-22.3 18.3,-22.3 4.9,0 9.3,2.2 11.7,5.8 h 0.2 v -20.8 h 16.4 z m -23,-32.1 c -5.9,0 -7.2,5.5 -7.2,10.6 0,5.1 1.3,10.7 7.2,10.7 5.9,0 7.2,-5.5 7.2,-10.7 0,-5 -1.4,-10.6 -7.2,-10.6"
   id="path23-6"
   style="fill:#1d1d1b" />

	</g>

</g>
  </g>
</svg>
